<svg xmlns="http://www.w3.org/2000/svg" width="1009.3492pt" height="572.21881pt" viewBox="0 0 1009.3492 572.21879"><path d="M513.235 78.578c35.571.482 69.714 20.064 93.192 45.912 59.37 65.367 75.656 154.02 75.533 239.727-.064 44.359-3.98 90.04-16.78 132.69-10.1 33.655-25.308 63.648-46.79 91.456-26.221 33.945-60.415 61.369-105.515 61.573-54.923.247-95.722-39.432-122.764-83.553-36.835-60.097-51.514-132.408-50.708-202.276.71-61.63 13.105-127.787 40.667-183.267 21.48-43.237 56.243-86.852 105.237-99.034a109.676 109.676 0 0 1 27.928-3.228zm-.595 58.973c-10.316-.438-19.62 6.81-26.264 13.964-11.632 12.524-20.375 30.04-26.624 45.804-19.59 49.419-26.274 109.637-25.663 162.442.433 37.386 3.463 75.444 10.373 112.215 5.133 27.317 13.002 57.519 25.94 82.26 5.325 10.183 12.461 20.596 21.316 28.042 5.213 4.385 12.34 8.74 19.393 8.69 3.33-.023 6.596-.54 9.766-1.566 35.537-11.505 52.237-83.278 58.186-114.947 3.842-20.45 6.525-41.222 8.266-61.956 1.372-16.349 2.259-33.05 2.034-49.46a655.352 655.352 0 0 0-1.676-38.597c-1.71-23.48-4.644-47.012-9.132-70.127-3.959-20.393-9.201-41.081-16.656-60.494-7.58-19.737-24.198-55.203-49.26-56.27z" style="fill:#251c23;fill-rule:evenodd;stroke:#2d2c2b;stroke-width:.8504;stroke-miterlimit:10.433" transform="translate(-11.231 -78.143)"/><path d="M513.177 82.83c34.374.466 67.43 19.557 90.103 44.519 58.61 64.53 74.55 152.282 74.428 236.862-.064 43.935-3.923 89.23-16.6 131.474-9.951 33.156-24.92 62.682-46.083 90.078-25.384 32.862-58.47 59.723-102.169 59.92-53.328.24-92.908-38.755-119.12-81.522-36.41-59.404-50.878-130.95-50.081-200.005.703-60.981 12.949-126.525 40.223-181.424 20.886-42.042 54.767-84.942 102.455-96.8a105.451 105.451 0 0 1 26.844-3.102zm-.356 50.473c-11.695-.497-21.984 7.16-29.561 15.319-12.014 12.936-21.005 30.843-27.461 47.13-9.19 23.182-15.285 48.147-19.332 72.717-4.957 30.1-6.982 60.851-6.63 91.341.436 37.634 3.49 75.937 10.446 112.952 2.94 15.646 6.622 31.25 11.41 46.438 3.98 12.629 8.799 25.26 14.941 37.006 5.59 10.691 13.055 21.511 22.347 29.327 6.054 5.091 14.006 9.744 22.16 9.687a36.54 36.54 0 0 0 11.045-1.773c37.723-12.213 54.722-84.488 61.056-118.207 3.869-20.592 6.571-41.508 8.324-62.386 1.384-16.486 2.275-33.324 2.048-49.874a659.278 659.278 0 0 0-1.686-38.847c-1.723-23.648-4.68-47.348-9.199-70.628-4.007-20.64-9.316-41.561-16.86-61.208-8.348-21.734-25.72-57.831-53.048-58.994z" style="fill:#fff;fill-rule:evenodd" transform="translate(-11.231 -78.143)"/><path d="M498.05 197.86c-4.087.394-8.273.646-10.745 3.306-4.039-.394-7.306.372-9.446 2.834-5.049-.329-7.487 1.523-8.738 4.369-3.449 2.095-4.73 5.07-4.364 8.71.471 4.681 3.908 16.416 8.497 16.912.623.224 1.308.286 2.125.118.264.707.41 1.591.473 2.598.734.69 5.784 8.94 9.113 10.742 3.33 1.803 5.849.09 8.458.992 2.61.901 5.387 2.76 6.017 2.886.63.127 3.532.38 5.089-.168 1.556-.548 2.23-.548 3.448-.548 1.22 0 10.004-4.175 11.656-5.71 1.653-1.534 5.77-1.233 7.142-.979 1.372.255 11.066 3.28 18.702 2.812 7.636-.468 9.195-2.89 9.974-3.514.779-.624 1.012-1.639 1.792-2.185.78-.547 4.909-2.343 5.376-3.28.468-.936 0-4.684 0-4.684s-2.18 2.42-3.662 3.045c-1.48.624-1.87 1.25-2.96.703-1.092-.547-.468-.938 1.012-2.03 1.48-1.093 5.3-5.778 2.182-9.213-.078.58-.078 1.327-.078 1.327s-.312 3.124-3.429 5.075c-3.116 1.951.914-1.282.758-3.156-.155-1.874-7.848 6.356-19.459 5.107-11.61-1.249-4.753-.312-4.753-.312s-.312-2.888 1.792-3.903c2.104-1.015 4.442-3.826 12.078-2.342 7.637 1.483 1.48-.313 1.48-.313s-6.778-1.483-8.57-1.405c-1.793.078-.234-2.343 3.35-3.045 3.584-.703 8.419-.703 10.805.563 2.385 1.266.34-1.169-1.169-1.802-1.51-.633-6.767-.73-8.617-.681-1.85.048-3.797-1.607-4.138-3.019-.341-1.411.779-4.479 4.333-4.82 3.554-.34 4.966-.291 7.108 1.413 2.142 1.704 1.265-.974 1.07-1.704-.194-.73-2.03-3.071-2.595-4.081-.564-1.01-1.975-2.1-1.29-.324.685 1.777 1.13 3.514-.523 3.514s-2.62.282-4.474-1.535-1.813-1.817-3.062-1.817c-1.25 0-1.25.121-.807 1.615.444 1.494 1.815.929.766 2.423-1.048 1.494-.726 2.503-1.733 1.534-1.007-.968-3.067-5.022-5.057-6.17-1.99-1.15-5.633-2.907-2.732.067 2.9 2.973 4.857 3.65 5.464 5.237.607 1.589.443 5.604-1.604 5.268-2.048-.336-2.345-.224-4.542-.224-2.196 0-2.196-.037-3.61.298-1.415.336-2.98.485-1.825-.97 1.154-1.454 1.34-1.566 1.526-2.237.187-.672.894-.821-.484-.672-1.377.15-2.716.262-1.6-.708s3.09-2.238 1.415-1.94c-1.676.299-2.792.374-1.415-.82 1.377-1.194 3.014-3.656 1.265-2.649-1.75 1.008-4.355 2.91-2.866.374 1.489-2.536 2.643-3.432.558-2.201-2.084 1.23-6.647 4.333-7.267 4.906-.62.573-.19.525.525 1.91.715 1.386.81 1.242.477 2.341-.334 1.1.667 1.769 1.144 3.106.477 1.338.907 1.625.858 2.628-.048 1.003.858 1.003-.477 1.29-1.335.286-1.811 1.05-2.193-.191-.382-1.242-.095-1.624-.668-3.106-.572-1.48-.668-2.437-1.621-3.201-.954-.764-1.144-.43-1.764-1.242-.62-.812.238-1.338-.62-1.911s-8.147-2.927-10.28-3.334c-2.133-.407-3.895-1.289-4.267.442-.372 1.73-1.354 3.867-2.438 4.478-1.083.611-1.66 1.256-1.66 1.256s2.1-.203 3.794.475c1.693.678 3.981 2.282 4.542 3.467.56 1.185.965 1.092 0 1.591-.966.5-1.681.655-2.99 1.154-1.307.499-1.805 1.716-1.899 2.246-.093.53.591.655 1.837-.28 1.246-.936 3.643-1.686 5.417-1.716 1.775-.031 6.607.058 11.398 1.327 4.791 1.269 5.01-1.125 7.547-1.564 2.536-.438 5.336-2.454 9.097-1.84 3.76.614 3.586.833 4.286 1.534.7.7 1.705.964-.744 1.665a55.683 55.683 0 0 0-9.359 3.68c-3.367 1.71-5.335 3.507-7.216 5.215-1.88 1.709-1.652 2.604-5.324 2.47-3.673-.136-4.21-.27-5.868.672-1.656.942-4.076 2.828-5.15 1.975-1.075-.853-1.701-1.795-1.075-2.872.627-1.077 3.11-2.225 4.57-2.889 1.46-.663 5.669-2.355 7.192-2.893 1.523-.538 2.221-1.034-1.496-.36-3.718.672-6.188 1.067-7.581 1.52-1.393.453-6.4 2.037-6.4 2.037s-.34.34-1.62-1.094c-1.279-1.433-.94-1.961-2.822-2.716-1.883-.754-3.953.038-5.12-1.32-1.167-1.358-1.732-2.715-1.845-4.94-.113-2.226.527-3.207-.678-2.34-1.204.868-2.578 2.729-3.136 3.587-.559.858-2.197 4.18-2.235 4.777-.037.597-1.527.97-.596-1.53.932-2.5 1.23-3.508 2.421-5.3 1.192-1.79 1.378-1.64 1.714-2.425.335-.784.782-1.717-.931-2.538a17.583 17.583 0 0 1-3.955-2.623c-.826-.739-4.51-4.223-4.51-4.223s-.766-.206.383-.945c1.15-.739 2.005-1.536 3.096-1.477 1.09.06.884.206 1.06.59.177.385.53.237.943-.412.413-.65 1.629-2.557 3.525-2.281 1.897.276 1.925.414 2.887.276.962-.138.686-.854 1.044-1.13.357-.275.33-.908 1.65-.633 1.319.275 1.649.799 2.776 1.955 1.127 1.157 1.511.66 2.363.936.853.276 6.909 1.523 8.083 1.552 1.174.028 2.461-.46 2.863-1.205.4-.746.888-2.151.916-1.004.029 1.147-.143 1.578-.086 2.41.057.831.286.458 1.288.831 1.002.373 3.379.804 4.324.804.944 0 .772-.775-.172-2.353-.945-1.578-1.68-5.402-2.232-8.47-.553-3.066.993-4.041 1.723-.646.434 2.018.833 3.794 1.684 5.609.852 1.814 1.443 3.574 1.598.907.156-2.668-.42-4.833.26-5.373.682-.54 2.295-.307 2.509.945.214 1.25-.107 3.681-.266 5.442-.16 1.76-.214 2.72-.214 2.72s.652-.335 1.838-1.626c1.185-1.292 2.583-6.513 2.544-8.001-.039-1.489.62-1.35 1.438-.8.818.548 5.068.38 6.134-.307.774-.498 1.179-1.43.903-1.781s-1.745-.663-2.704-.663c-.958 0 .014.988-.998.988s-.998.269-1.495-.11c-.498-.378-1.011-.753-.978-1.443.033-.69.688-1.382 2.174-1.434 1.486-.053 2.112-.001 2.66.364.546.366.234.158.573-.6.339-.758.193-1.309.156-1.463-.147-.606-4.447 1.131-5.366-.22-.24-.352-.163-.566-.082-.799.08-.233.208-.21 1.147-.156.938.052.86.34 1.798.34 1.05 0 3.257.409 3.697-.917.104-.314.113-.523-.255-.677-.368-.154-1.305.771-2.06.304-.755-.467-1.348-.394-2.003.018-3.55.09-3.071.383-4.644 1.559-.453.338-1.688.634-2.216.417-.574-.235-.861-.835-.965-1.149-.104-.314-.299-.87.391-.732.94.189 2.8.469 3.494-.548a5.268 5.268 0 0 1 1.92-1.69c.9-.464 1.444-.75 2.589-.792 1.145-.041 1.334.313 2.343-.081 1.01-.395 1.254-.875 1.39-1.093.136-.218-.11-.705-.992-.262-1.236.62-2.51-3.43-2.787-4.223-.242-.694-.347-1.214-.382-2.116-.034-.902-.45-1.84-.104-2.637.347-.798.52-.729.278-1.18-.243-.45-.382-.763-1.076-.312-.694.451-.728.625-1.735.625-1.006 0-2.22.242-3.018.138-.798-.104-1.284.174-1.284-.277s.5-1.543.309-2.503c-.192-.96-1.533-1.343-1.341-3.742.191-2.4-.096-3.935 1.723-4.031 1.82-.096 1.246 1.92 1.82 2.4.575.479 1.724.383 2.203-.96.48-1.344 0-3.359-1.245-4.319s-4.262-.91-7.71 1.583c-3.448 2.494.193-1.39 1.245-2.254 1.053-.864 1.437-3.455 5.46-2.88 4.022.577 1.293 2.975 3.304 3.071 2.011.097 1.724-2.783.096-3.742-1.629-.96-2.873-1.44-5.555-1.343-2.683.095-1.629 1.151-2.874 1.055-1.245-.096-1.533-.768-3.448-.288-1.916.48-3.926 2.112-6.034 2.207-2.107.096-3.639.096-4.405.48-.767.384-6.322 4.51-6.992 7.965-.67 3.455-.192 4.798-.67 6.238-.48 1.439-1.245 2.202-.958 4.744.287 2.543 1.054 2.256 1.006 3.167-.048.912-.718 1.2-.431 2.35.287 1.153.91.625 1.15 1.728.238 1.104.382 1.152.382 1.872 0 .72.814.672.719 1.727-.096 1.056 0 1.44.718 2.063.718.624.91 1.008.91 1.776s-.383.912-.383 1.44c0 .527 1.182 2.502 1.182 2.502zm27.216-35.323s-2.011 4.462-2.73 4.75c-.718.289.24.817 1.006.48.766-.336 2.538-1.535 2.394-3.646-.143-2.112-.67-1.584-.67-1.584zm1.628 2.255c-.774 1.872-1.907 3.263-3.831 3.599 1.726.611 2.824 1.642 3.4 3.023 1.207-2.208 1.015-4.415.43-6.622zm-1.273 10.555s.264 1.248 0 1.656c-.263.408-.31 1.294-.12 1.942.192.648.79 1.896 1.102 2.256.311.36 1.125-1.608 1.484-2.52.36-.91.719-1.583.336-2.062-.384-.48-1.125-.24-1.533-.504-.407-.264-1.269-.768-1.269-.768zm-5.767 3.6s-1.58.336-1.436.912c.144.575.766 1.104-.096 1.104s-1.39-1.104-2.107-1.104c-.718 0-1.964-.624-2.012.192-.047.816-.67 1.2 1.245 2.735 1.916 1.535 3.017 2.016 3.065 3.023.049 1.007.049 1.775.958 1.871.91.096 1.005-.912 1.293-1.344.288-.432 1.437-.48 1.389-1.2-.048-.719.24-1.534-.575-2.302-.814-.768-1.436-1.536-1.436-2.016s.336-.335.718-.671c.383-.336.43-.72.144-.96-.288-.24-1.15-.24-1.15-.24zm-15.995 7.63c.212 1.362.738 3.288 2.49 4.174 1.192.603 2.717-.642 1.58-1.296-1.81-1.043-2.16-2.336-2.68-3.502-.668-1.494-1.64-.992-1.39.624zm.88-3.113c1.593-.305 5.13-1.467 5.329-3.467.152-1.526-.32-2.094-1.212-.814-1.257 1.807-3.738 2.474-4.78 3.038-1.438.778-.942 1.55.663 1.243zm2.011-4.99c4.773-.631 7.613-6.028 8.73-11.383.487-2.34-1.924-2.58-1.69-1.006.44 2.962-4.665 11.507-7.703 11.146-1.621-.193-.956 1.458.663 1.243zm14.11 21.73c.432 1.615-.175 3.998-.766 5.997 4.844-3.7 9.904-4.68 14.367-1.727-.585-1.78 2.084-2.21 5.22-2.447-2.946-2.145-5.101-2.176-6.896-1.248-1.844-1.999-11.877-.623-11.925-.576zm-36.587 11.947c1.229.712 2.298 1.622 3.017 2.975a7.206 7.206 0 0 1 2.92-1.008c2.34-.34 1.282 1.853-.621 2.208-1.897.363-3.31 1.074-4.741 2.447-.647-2.864-1.013-4.752-1.916-5.567-.702-.928.129-1.856 1.341-1.055z" style="fill:#2d2c2b;fill-rule:evenodd" transform="translate(-11.231 -78.143)"/><path d="M195.138 277.243c.712.415 1.604.704 2.381.91 1.069.285 2.174.457 3.281.457.651 0 2-.078 2.505-.583a.87.87 0 0 0 .232-.406c.158-.642.161-1.603.161-2.256V257.99l-1.484-.42v-5.722h15.532v5.714l-1.485.425v17.724c0 2.638-.273 5.824-1.7 8.117-1.255 2.011-3.08 3.45-5.235 4.408-2.3 1.021-4.797 1.412-7.302 1.412-1.332 0-2.686-.073-3.987-.312-1.699-.3-3.49-.846-5.14-1.334-.426-.124-1.21-.358-1.785-.449l-1.1 1.1-4.999-1.989 4.91-13.272 5.373 2.015zm170.098 217.473-3.507 8.858.931.24v5.69h-14.675v-5.837l.866-.166-7.888-20.322c-.106-.273-.288-.746-.467-1.07l-2.21-.452v-5.806h15.382v5.773l-.806.176 2.649 7.076 2.83-7.046-.755-.145v-5.834h3.575a377.54 377.54 0 0 1-5.436-23.53l-24.658-.106 8.246-9.362c3.771-4.283 8.752-12.065 8.76-17.958l-.149-27.255c-.214-.7-.558-1.5-.814-2.138a175.538 175.538 0 0 0-2.138-5.044c-2.007-4.58-4.1-9.128-6.208-13.662-3.34-7.18-6.708-14.5-10.28-21.566-3.656-7.23-6.798-14.708-10.57-21.879-2.327-4.426-4.744-8.053-8.13-11.724-1.784-1.934-3.661-3.786-5.477-5.69l-9.13-9.581h56.897c16.308-122.081 78.725-220.39 161.046-219.275 29.54.4 62.156 15.762 87.012 43.127 30.64 33.734 50.326 74.86 61.502 121.641h26.275l.428-1.5h5.716v13.834h-5.707l-.423-1.46h-16.036v1.824h9.086l.425-1.485h5.714v13.66h-5.706l-.43-1.484h-9.089v2.985h16.58l.423-1.484h5.715v13.842h-5.723l-.418-1.485h-19.846c.798 5.686 1.49 11.44 2.085 17.26h31.49c15.968 0 34.345 3.26 45.66 15.564 7.14 7.766 10.004 17.573 10.004 27.976v4.671l-.006.127c-1.012 22.635-19.948 41.772-42.78 41.772h-6.818c-4.893 0-12.577-1.159-17.597-3.783l.039 25.379c0 8.71.926 14.553 6.205 21.488.992 1.303 2.02 2.578 3.005 3.887l6.835 9.079h-40.025a369.292 369.292 0 0 1-4.71 23.335h3.67c2.905 0 6.284.248 8.993 1.4 3.268 1.411 5.707 3.783 7.25 6.982 1.286 2.634 1.783 5.52 1.783 8.434 0 5.087-1.49 9.818-5.435 13.177-1.59 1.375-3.44 2.314-5.468 2.874-2.272.62-4.776.787-7.124.787H652.08c-10.225 28.45-23.875 52.243-40.419 73.659-23.44 30.344-55.427 58.071-98.824 58.268-47.01.212-86.12-31.597-115.475-79.493-9.515-15.523-18.156-33.032-25.46-52.434h-4.113v-5.927l.853-.13zm71.054-20.195h.493v2.558c6.335 32.414 15.174 60.237 26.083 81.097 13.834 26.457 32.406 41.406 48.304 41.296 33.577-.233 55.12-40.136 68.338-88.652h-4.066l-.37-1.315h-27.216v-5.64l1.315-.37V481.86l-1.315-.37v-5.64h26.726l.38-1.329h5.63v12.905h-5.622l-.375-1.294h-.154v12.407h-5.621l-.382-1.315h-7.488v2h14.126l.375-1.316h5.631v6.947c4.337-16.996 7.698-34.87 10.234-52.34h-41.667l7.374-9.211c3.788-4.733 3.167-6.697 3.042-12.525-.406-13.299-1.162-26.573-2.35-39.812l-21.4 57.847-1.37 3.702h-22.136l-1.446-3.51c-4.765-11.57-8.58-23.85-12.69-35.687-2.296-6.614-4.657-13.228-7.278-19.721l-.132-.328c-.617 3.447-1.16 6.893-1.533 10.322a334.658 334.658 0 0 0-.93 9.958c-.305 3.859-.557 7.74-.67 11.61-.056 1.928-.176 4.648.087 6.637 1.262 3.928 2.98 8.31 5.523 11.55l7.193 9.169h-68.34a538.099 538.099 0 0 0 3.697 22.005zm28.199 22.703v2h14.126l.375-1.316h5.632v12.912h-5.64l-.37-1.315h-27.217v-5.64l1.315-.37V481.86l-1.315-.37v-5.64h26.726l.38-1.329h5.63v12.905h-5.622l-.375-1.294h-.154v12.407h-5.621l-.382-1.315zm7.763-11.092h-7.763v.972h7.485zm40.555 11.455-.97.782v5.11l1.316.343v5.683h-14.41v-5.64l1.316-.37V481.86l-1.316-.37v-5.64h14.41v5.692l-1.315.338v2.763l5.457-4.456v-4.336h17.11v5.802l-2.262.467c-.071.014-.154.03-.232.05-.45.32-.928.741-1.341 1.08l-1.612 1.333-7.269 5.837 8.948 10.764c.445.536 1.2 1.49 1.731 1.911.086.067.26.1.36.116l2.398.375v5.919h-16.6v-4.907zm55.906-11.455h-7.763v.972h7.485zm91.623 0v13.092h4.828c1.167 0 3.104-.088 4.16-.663 2.104-1.145 2.473-3.711 2.473-5.894 0-1.674-.255-3.717-1.417-5.022a3.71 3.71 0 0 0-1.643-1.092c-1.064-.357-2.46-.421-3.573-.421zm-228.291-37.425 4.018-5.29c6.202-8.164 9.305-11.95 11.068-22.164 2.347-13.598 4.373-27.257 6.76-40.844 1.59-9.05 3.207-18.09 4.32-27.215 1.03-8.436 1.742-17.367 1.09-25.859-.904-5.948-1.923-7.375-4.94-12.385l-5.174-8.594h53.104l1.451 3.494c1.86 4.474 3.544 9.124 5.259 13.659a7507.133 7507.133 0 0 1 8.778 23.362c2.775 7.412 5.525 14.838 8.296 22.256l1.372-3.819c2.31-6.414 4.57-12.961 7.061-19.301a353.457 353.457 0 0 0 6.538-18.064c2.007-6.06 4.455-12.24 6.933-18.12l1.461-3.467h45.218a637.19 637.19 0 0 0-1.956-17.26h-.856v-5.723l.096-.027c-11.176-81.61-37.88-152.544-78.94-154.29-31.566-1.343-62.612 47.75-77.807 122.793h8.447v5.762l-1.13.298 3.524 9.162 3.432-9.073-1.206-.232v-5.917h16.519v5.735l-2.081.575a3.85 3.85 0 0 0-.27.082c-.226.414-.456 1.02-.599 1.382l-9.04 23.293-.002.002 1.19.197v5.981h-15.967v-6.01l1.102-.169-4.344-11.14-4.45 11.241 1.177.302v5.776h-2.239a513.882 513.882 0 0 0-1.756 17.26h14.975l-4.52 8.364c-2.694 4.985-5.25 10.108-7.828 15.155a4916.872 4916.872 0 0 0-4.394 8.623 572.951 572.951 0 0 0-.149 21.361c.362 31.3 2.588 61.303 6.459 88.848zm258.53-109.222.064 41.404 1.374.077c3.347.185 6.44-.601 9.196-2.529 4.963-3.471 7.752-9.816 8.728-15.625 1.674-9.963-1.287-23.344-13.626-23.344zm237.74 141.911a534.335 534.335 0 0 0-1.48-8.067c-3.513-18.392-7.912-36.593-12.381-54.771-2.041-8.302-4.179-16.697-6.132-25.118-.998 3.31-2.02 6.608-3.039 9.89-2.66 8.565-5.41 17.109-7.985 25.7-2.713 9.544-6.13 18.971-8.984 28.501-2.395 7.996-5.492 18.66-5.66 27.007v2.687c0 7.387 3.796 12.872 6.969 19.12l4.183 8.236h-85.18l7.297-9.194c13.103-16.509 23.624-40.013 30.628-59.963 10.714-30.104 20.662-60.481 31.223-90.64 3.317-9.965 6.988-19.804 10.025-29.863l.113-.374.163-.354c1.416-3.083 2.588-7.047 3.666-10.287 1.936-5.816 3.825-11.647 5.774-17.458 1.499-4.47 3.025-8.934 4.644-13.361 1.351-3.692 2.54-7.487 3.979-11.137 4.623-11.738 20.194-10.56 23.598 1.365 2.02 7.076 4.56 13.95 6.692 20.969 6.364 19.372 13.252 38.57 19.481 57.986 3.218 9.318 6.063 18.763 9.405 28.037 2.626 7.288 4.933 14.835 7.3 22.217 3.615 11.28 7.224 22.563 10.929 33.815 3.056 9.28 6.168 18.552 9.453 27.754 2.489 6.971 5.08 14.133 8.114 20.886 2.986 6.645 7.91 13.742 12.4 19.478l7.07 9.033-106.383 1.213 5.99-8.946c4.209-6.283 7.98-16.595 8.128-24.361zm-97.268-165.682c-4.448 5.191-8.802 11.96-8.802 19.034v88.618c0 9.815 2.65 12.763 6.916 20.83l4.403 8.32H762.47l4.402-8.321c4.145-7.833 6.917-11.333 6.917-20.829V333.99c0-8.745-3.02-12.101-7.926-18.523l-6.96-9.111h80.163zm-568.417 98 20.034-.242c7.005 0 18.239-2.718 23.74-7.097l.43-.342 14.667-7.626-15.047 54.083-106.5.029 5.91-8.827c6.887-10.285 8.889-18.395 8.889-30.93v-74.985c0-9.265-3.51-15.232-7.674-23.1l-4.404-8.321h72.11l-4.404 8.321c-2.57 4.857-7.93 12.145-7.93 17.789zM103.474 267.876c18.721-.057 35.607 6.053 50.012 17.882 14.276 11.721 24.22 27.845 30.518 45.06 7.132 19.497 9.802 40.77 9.17 61.46-1.04 34.102-9.702 70.953-33.795 96.417-15.136 15.998-33.286 27.6-56.015 27.684-8.759.032-17.421-1.361-25.711-4.197-21.182-7.244-37.558-22.949-48.49-42.185-13.331-23.461-18.29-51.228-17.912-77.972.322-22.756 4.463-46.284 13.71-67.17 8.28-18.698 20.936-35.717 38.754-46.253 12.175-7.2 25.639-10.683 39.76-10.726zm.846 46.214a16.396 16.396 0 0 0-5.172.651c-9.94 2.926-16.257 15.034-19.613 23.98-5.943 15.843-7.952 34.696-7.952 51.525 0 18.232 2.943 39.052 10.778 55.677 3.978 8.442 11.908 20.922 22.617 20.86 8.554-.048 14.818-5.058 19.157-12.084 10.203-16.523 12.902-45.511 13.282-64.566.336-16.823-1.61-35.626-7.837-51.377-3.686-9.326-10.38-20.96-20.722-23.952a18.395 18.395 0 0 0-4.538-.714zm159.284-62.795c5.542 0 10.864 1.387 15.01 5.208 4.116 3.773 6.026 8.617 6.026 14.162 0 3.583-.978 6.93-2.878 9.966-4.057 6.502-10.635 9.017-18.11 9.017-5.53 0-10.815-1.4-14.951-5.212-2.046-1.886-3.593-4.16-4.642-6.746a19.406 19.406 0 0 1-1.38-7.23c0-3.644.94-7.06 2.855-10.16 3.997-6.475 10.65-8.909 18.034-9.004zm.01 11.016c-2.117.002-4.023.541-5.62 1.968-1.86 1.65-2.61 3.714-2.61 6.18 0 2.468.75 4.532 2.613 6.185 1.605 1.434 3.54 1.965 5.67 1.965 2.12 0 4.053-.523 5.65-1.962a7.657 7.657 0 0 0 1.997-2.862 8.417 8.417 0 0 0 .621-3.183c0-2.475-.67-4.653-2.585-6.301-1.632-1.421-3.596-1.966-5.737-1.99zm60.654 12.926v2.985h16.579l.424-1.484h5.715v13.842h-5.723l-.419-1.485h-30.623v-5.723l1.484-.418V257.99l-1.484-.419v-5.722h30.069l.428-1.5h5.715v13.834h-5.706l-.424-1.46h-16.035v1.824h9.086l.424-1.485h5.714v13.66h-5.705l-.431-1.484zm177.55 0v2.985h16.58l.423-1.484h5.716v13.842h-5.724l-.418-1.485h-30.624v-5.723l1.485-.418V257.99l-1.485-.419v-5.722h30.07l.428-1.5h5.715v13.834h-5.707l-.423-1.46h-16.035v1.824h9.085l.425-1.485h5.714v13.66h-5.706l-.43-1.484zm49.713-17.248-1.485-.419v-5.722h15.532v5.774l-1.484.382v24.937l1.484.387v5.767h-15.532v-5.723l1.485-.418zm200.223 16.779 3.83 5.442c.47.67 1.292 1.88 1.905 2.44.047.033.111.036.168.04l2.65.172v6.233h-17.095v-5.677l-4.958-7.21h-4.092v6.733l1.485.387v5.767h-15.532v-5.723l1.484-.418V257.99l-1.484-.419v-5.722h22.591c2.05 0 4.256.075 6.27.471 1.679.329 3.284.925 4.715 1.872 1.681 1.113 2.938 2.631 3.758 4.472l.016.036a13.558 13.558 0 0 1 1.081 5.373c0 5.37-2.567 8.894-6.792 10.696zm-17.592-9.433h7.81c.906 0 2.027.019 2.922-.112l.034-.005c.283-.038.551-.123.809-.263.28-.15.27-.665.27-.931 0-.267.013-.772-.267-.922l-.04-.021a2.204 2.204 0 0 0-.778-.261c-.9-.125-2.04-.1-2.95-.1h-7.81zm54.503-1.462a5.947 5.947 0 0 1-1.719-1.36c-1.129-1.304-1.62-2.924-1.62-4.632 0-1.729.505-3.362 1.688-4.65 1.2-1.307 2.809-1.936 4.575-1.936 2.132 0 3.962.91 5.262 2.598 1.258 1.635 1.734 3.62 1.734 5.654 0 4.82-2.77 8.499-6.583 11.197l-2.262 1.601-4.563-6.148 2.53-1.644c.294-.191.633-.423.958-.68zm40.677 22.487-.035-.016-.922.72-4.651-2.41 5.41-12.256a10.676 10.676 0 0 1-1.95-2.482c-1.022-1.754-1.473-3.703-1.473-5.726 0-3.374 1.183-6.343 3.632-8.667 3.422-3.275 8.197-4.228 12.784-4.228 2.112 0 4.23.205 6.28.69 2.353.543 4.732 1.458 6.96 2.387l.289.117 1.082-.886 4.757 2.553-5.632 11.11.046.033c1.467 1.047 2.594 2.426 3.385 4.04a11.65 11.65 0 0 1 1.208 5.201c0 2.894-.954 5.508-2.796 7.727-1.89 2.306-4.635 3.639-7.466 4.424-2.38.665-4.838.957-7.307.957-4.773 0-9.327-1.188-13.601-3.288zm4.985-11.154V276.002l.042.038c.897.798 2.479 1.378 3.607 1.725 1.654.512 3.389.845 5.125.845 1.342 0 2.8-.174 4.023-.763.327-.157.642-.362.859-.658l.015-.02c-1.014-.308-2.847-.481-3.757-.58l-3.554-.37c-1.758-.18-3.68-.372-5.415-.76a15.33 15.33 0 0 1-.945-.252zm16.085-10.31.019-.187a.557.557 0 0 0-.02-.015l-.037-.024c-2.41-1.676-5.134-2.36-8.055-2.36-1.145 0-2.341.11-3.438.457a2.584 2.584 0 0 0-.842.457c1.18.305 2.937.437 4.109.554l3.642.373c1.524.161 3.108.381 4.622.746z" style="fill:#e31c2a;fill-rule:evenodd" transform="translate(-11.231 -78.143)"/><path d="M931.153 481.17c-.488-2.796-1-5.586-1.533-8.372-3.524-18.442-7.932-36.69-12.414-54.917-1.988-8.088-3.995-16.174-5.888-24.284a538.428 538.428 0 0 1-2.611-11.677c-1.897 6.901-4.02 13.77-6.13 20.57-2.666 8.58-5.42 17.139-8 25.745-1.231 4.334-2.66 8.639-4.054 12.923-1.683 5.174-3.364 10.348-4.924 15.56-1.494 4.987-2.9 10.034-4.01 15.121-.89 4.076-1.689 8.491-1.77 12.67v2.716c0 4.06 1.154 8.013 2.773 11.704 1.34 3.059 3.009 5.756 4.504 8.699l2.091 4.118h-74.693l3.649-4.597c4.403-5.547 8.285-11.603 11.793-17.75 3.866-6.774 7.34-13.797 10.513-20.922a293.018 293.018 0 0 0 8.773-22.106c10.718-30.115 20.67-60.5 31.235-90.67 3.327-9.999 7.008-19.868 10.056-29.96l.056-.188.082-.177c.577-1.256 1.06-2.651 1.522-3.954a354.44 354.44 0 0 0 2.257-6.62c1.936-5.814 3.824-11.644 5.773-17.453 1.49-4.445 3.008-8.885 4.619-13.288 1.342-3.67 2.524-7.445 3.953-11.073 3.632-9.22 15.573-8.225 18.235 1.105a235.271 235.271 0 0 0 2.117 6.94c1.501 4.701 3.166 9.389 4.598 14.105 6.368 19.386 13.261 38.597 19.495 58.028 3.225 9.34 6.077 18.806 9.427 28.102 1.055 2.928 2.023 5.903 2.99 8.861 1.442 4.415 2.86 8.837 4.277 13.26 3.618 11.288 7.229 22.578 10.937 33.837 3.063 9.302 6.183 18.596 9.476 27.82 2.514 7.043 5.133 14.272 8.198 21.094 3.083 6.864 8.115 14.14 12.753 20.064l3.535 4.517-95.265 1.086 2.995-4.473c4.567-6.82 8.535-17.81 8.61-26.165zm-102.258-167.3c-4.929 5.752-9.485 13.056-9.485 20.878v88.618c0 5.441.756 9.763 3.167 14.642 1.26 2.548 2.748 4.997 4.079 7.513l2.2 4.16h-61.68l2.202-4.16c1.257-2.376 2.633-4.698 3.83-7.102 2.505-5.035 3.415-9.412 3.415-15.053V333.99c0-6.486-1.528-10.876-5.307-16.055-1.035-1.42-2.134-2.793-3.2-4.189l-3.48-4.555h68.268zm-141.082 73.135.047 31.058c0 4.892.396 10.15 2.027 14.799 1.123 3.204 2.717 5.724 4.757 8.405.99 1.299 2.014 2.57 2.996 3.875l3.418 4.54h-69.624l4.266-4.733c6.24-6.923 10.43-15.094 10.378-24.615l.255-83.317c0-4.99-.809-9.795-2.698-14.422-1.352-3.31-3.095-6.06-4.984-9.06l-2.736-4.344h66.278c15.103 0 32.851 2.988 43.573 14.648 6.653 7.235 9.257 16.374 9.257 26.057v4.608l-.003.063c-.945 21.118-18.63 39.064-39.95 39.064h-6.817c-5.106 0-14.542-1.5-18.414-4.865zm-.076-50.347.071 46.913 4.048.225c3.981.22 7.7-.744 10.977-3.036 5.61-3.924 8.792-10.892 9.9-17.478 1.262-7.515.15-17.151-5.677-22.647-2.982-2.813-6.698-4.002-10.751-4.002zm-197.513 47.057c-.457 2.348-.914 4.697-1.346 7.05-.76 4.13-1.51 8.345-1.966 12.52a336.624 336.624 0 0 0-.938 10.042c-.308 3.906-.563 7.834-.677 11.752a87.703 87.703 0 0 0-.033 4.61c.021.887.05 1.857.18 2.745 1.381 4.334 3.246 9.068 6.066 12.663l3.596 4.584h-60.242l3.456-4.55c2.963-3.9 6.302-8.126 8.418-12.558 1.652-3.46 2.537-7.075 3.186-10.838 2.347-13.595 4.373-27.251 6.759-40.835 1.598-9.1 3.222-18.188 4.342-27.363 1.057-8.662 1.775-17.807 1.094-26.524-.445-2.96-1.031-5.762-2.377-8.458-.865-1.734-1.953-3.407-2.953-5.068l-2.586-4.296h46.196l.726 1.747c1.847 4.445 3.52 9.067 5.224 13.573 2.942 7.778 5.86 15.566 8.775 23.354 3.678 9.824 7.313 19.673 11.009 29.493 1.328-3.696 2.65-7.394 3.981-11.09 1.396-3.876 2.794-7.753 4.206-11.624.924-2.534 1.84-5.09 2.827-7.601a356.236 356.236 0 0 0 6.59-18.209c1.841-5.56 4.068-11.206 6.312-16.613.18-.433.36-.865.542-1.297l.73-1.733h55.773l-3.602 4.585c-2.911 3.707-6.03 10.107-6.03 14.932-.143 15.098 1.199 30.493 2.824 45.496 1.72 15.877 3.93 31.683 5.9 47.528.822 4.152 1.65 8.766 3.53 12.573.862 1.745 1.935 3.475 2.994 5.107 1.24 1.911 2.585 3.88 4.017 5.653l3.732 4.616h-64.91l3.687-4.606c4.316-5.393 3.801-7.81 3.663-14.363-.533-17.465-1.666-34.882-3.584-52.237-8.554 23.118-17.106 46.237-25.659 69.355l-.685 1.851h-18.264l-.723-1.755c-2.218-5.386-4.169-10.924-6.077-16.427-2.207-6.363-4.347-12.748-6.556-19.11-2.312-6.658-4.689-13.315-7.327-19.852-1.18-2.924-2.431-5.906-3.8-8.822zM350.757 397.23c-.158-.703-.603-1.744-.858-2.388a159.236 159.236 0 0 0-2.162-5.138c-2.065-4.73-4.226-9.425-6.403-14.104a1398.477 1398.477 0 0 0-6.4-13.567c-1.289-2.695-2.573-5.416-3.92-8.082-3.663-7.245-6.81-14.734-10.59-21.92-2.443-4.645-5.003-8.474-8.557-12.327-1.794-1.945-3.682-3.808-5.508-5.724l-4.565-4.79h60.387l17.9 47.58a341.109 341.109 0 0 0 5.277-12.855c1.483-3.825 2.923-7.703 4.168-11.612.56-1.76 1.703-5.26 1.721-7.08l.001-.056.094-3.144c-.016-2.25-1.405-6.791-2.317-8.85l-1.764-3.983h50.462l-2.26 4.182c-2.704 5.004-5.272 10.146-7.859 15.213a5440.97 5440.97 0 0 0-13.339 26.31c-4.672 9.275-9.33 18.56-13.912 27.878a732.568 732.568 0 0 0-4.746 9.784c-.486 1.027-.97 2.056-1.433 3.094-.15.333-.336.725-.48 1.093v29.572c.43 7.416 5.212 13.149 9.472 18.829l3.42 4.56-69.269-.299 4.123-4.68c4.287-4.869 9.468-13.17 9.468-19.834zM259.8 416.58l22.863-.274c7.667 0 19.483-2.921 25.506-7.715l.214-.17 8.638-4.491-12.722 45.725-99.036.026 2.956-4.413c7.201-10.755 9.367-19.41 9.367-32.507v-74.985c0-9.833-3.587-16.082-8.003-24.426l-2.202-4.16h62.696l-2.202 4.16c-2.948 5.57-8.26 12.575-8.26 19.12zm-156.318-145.87c18.061-.055 34.308 5.828 48.205 17.238 13.879 11.396 23.532 27.11 29.654 43.844 7.007 19.155 9.62 40.073 8.999 60.4-1.018 33.37-9.433 69.624-33.021 94.555-14.586 15.416-32.046 26.716-53.966 26.797-8.444.032-16.793-1.31-24.784-4.044-20.52-7.018-36.356-22.275-46.942-40.903-13.078-23.014-17.913-50.302-17.543-76.532.317-22.371 4.377-45.528 13.469-66.061 8.035-18.149 20.305-34.733 37.604-44.962 11.74-6.942 24.71-10.29 38.325-10.331zm.927 40.547a19.224 19.224 0 0 0-6.062.765c-10.95 3.223-17.748 15.79-21.467 25.703-6.067 16.174-8.132 35.34-8.132 52.521 0 18.664 3.029 39.87 11.048 56.886 4.535 9.624 13.142 22.555 25.197 22.486 9.555-.054 16.69-5.557 21.553-13.43 5.082-8.229 8.066-18.88 9.94-28.3 2.45-12.318 3.514-25.151 3.764-37.698.343-17.212-1.666-36.364-8.034-52.476-4.051-10.248-11.264-22.362-22.571-25.633a21.218 21.218 0 0 0-5.236-.824zM365.246 490.84l-5.079 12.831-.012.027c-.093.208-.247.537-.35.82.132.054.291.1.373.121l1.065.274v3.174h-11.841v-3.247l1.151-.22c.044-.008.122-.026.19-.048-.102-.4-.322-.936-.448-1.269l-8.011-20.639c-.164-.42-.519-1.315-.818-1.653-.14-.157-.435-.24-.63-.279l-1.133-.231v-3.233h12.548v3.216l-1.114.244c-.035.008-.089.02-.143.036.051.22.153.5.207.642l4.263 11.388 4.622-11.506c.057-.137.14-.335.205-.522a2.493 2.493 0 0 0-.138-.03l-1.15-.222v-3.246h13.003v3.168l-1.057.278a2.44 2.44 0 0 0-.294.098c.058.197.153.432.212.58l4.363 11.343 4.2-11.104c.07-.175.213-.543.288-.828a3.04 3.04 0 0 0-.28-.068l-1.149-.221v-3.246h12.45v3.155l-1.042.287c-.164.045-.594.179-.714.292-.258.315-.633 1.282-.783 1.663l-8.013 20.643c-.111.285-.348.875-.44 1.256.086.023.179.04.232.05l1.187.196v3.277h-11.96v-3.292l1.202-.184a1.94 1.94 0 0 0 .199-.041c-.107-.377-.353-.92-.48-1.215l-.01-.024zm50.477 4.966v4.835h16.598c.04-.098.077-.218.096-.287l.294-1.029h3.144v10.078h-3.149l-.29-1.034a2.804 2.804 0 0 0-.094-.282h-26.858v-3.149l1.033-.29c.067-.02.185-.054.281-.094V480.8a2.783 2.783 0 0 0-.282-.093l-1.033-.291v-3.149H431.825c.043-.102.082-.23.102-.3l.294-1.03h3.145v10.071h-3.14l-.297-1.023a2.568 2.568 0 0 0-.093-.271h-16.113v3.806H425.68a2.87 2.87 0 0 0 .097-.288l.293-1.028h3.144v9.917h-3.14l-.296-1.023a2.7 2.7 0 0 0-.101-.293h-.014zm47.348 0v4.835h16.598a2.82 2.82 0 0 0 .097-.287l.293-1.029h3.145v10.078h-3.149l-.29-1.034a2.83 2.83 0 0 0-.094-.282h-26.859v-3.149l1.034-.29c.066-.02.185-.054.281-.094V480.8a2.783 2.783 0 0 0-.282-.093l-1.033-.291v-3.149H479.174c.043-.102.082-.23.102-.3l.294-1.03h3.144v10.071h-3.14l-.296-1.023a2.542 2.542 0 0 0-.093-.271H463.07v3.806H473.028a2.87 2.87 0 0 0 .098-.288l.293-1.028h3.144v9.917h-3.14l-.296-1.023a2.681 2.681 0 0 0-.102-.293h-.013zm49.944-.206-2.595 2.09v6.871c.087.034.195.064.256.08l1.06.276v3.17H500.16v-3.149l1.033-.29c.067-.02.185-.054.282-.094v-23.752a2.737 2.737 0 0 0-.282-.094l-1.033-.291v-3.149h11.575v3.175l-1.065.273c-.06.016-.164.044-.25.076V487.63l8.628-7.046-.337-.062v-3.254h14.276v3.23l-1.131.234c-.155.031-.431.082-.572.151l-.013.008-.017.01c-.497.31-1.13.881-1.588 1.257l-1.592 1.317-8.397 6.743 9.869 11.872c.524.63 1.311 1.617 1.947 2.12.294.23.651.345 1.016.402l1.2.187v3.288h-13.766v-3.235l.53-.107-.108-.134zm46.517.206v4.835h16.598c.041-.098.077-.218.097-.287l.293-1.029h3.145v10.078h-3.149l-.29-1.034a2.83 2.83 0 0 0-.094-.282h-26.859v-3.149l1.034-.29c.066-.02.185-.054.281-.094V480.8a2.783 2.783 0 0 0-.282-.093l-1.033-.291v-3.149H575.635c.043-.102.082-.23.102-.3l.294-1.03h3.144v10.071h-3.14l-.296-1.023a2.542 2.542 0 0 0-.093-.271H559.532v3.806H569.49a2.87 2.87 0 0 0 .098-.288l.293-1.028h3.144v9.917h-3.14l-.296-1.023a2.7 2.7 0 0 0-.101-.293h-.014zm46.838-4.802v13.51l.001.039c.098.04.218.077.286.096l1.029.293v3.145h-11.064v-3.149l1.033-.29c.067-.02.185-.054.282-.094v-23.752a2.737 2.737 0 0 0-.282-.094l-1.033-.291v-3.149h12.351v3.182l-.52.13 12.815 13.327v-13.105a2.745 2.745 0 0 0-.283-.094l-1.032-.291v-3.149h11.064v3.144l-1.028.294a2.95 2.95 0 0 0-.288.097v23.75c.099.04.218.077.287.096l1.029.294v3.144h-11.652v-3.215l.36-.08-.107-.109zm43.604-10.202a2.774 2.774 0 0 0-.282-.094l-1.033-.291v-3.149h17.016c2.694 0 5.922.217 8.432 1.284 2.956 1.277 5.14 3.406 6.537 6.301 1.19 2.438 1.64 5.118 1.64 7.814 0 4.663-1.317 9.016-4.943 12.103-1.431 1.237-3.093 2.077-4.917 2.581-2.146.586-4.533.736-6.75.736H648.66v-3.149l1.034-.29c.066-.02.185-.054.281-.094V480.8zm8.944 3.912v15.927h6.246c1.458 0 3.526-.12 4.836-.835 2.62-1.425 3.214-4.374 3.214-7.139 0-2.06-.356-4.37-1.775-5.964a5.117 5.117 0 0 0-2.253-1.495c-1.225-.41-2.74-.494-4.022-.494zM194.232 278.35c.863.547 1.94.912 2.922 1.173 1.188.317 2.415.505 3.646.505 1.122 0 2.665-.157 3.507-.999.3-.3.494-.645.6-1.047.197-.775.209-1.821.209-2.617v-18.249c0-.04-.001-.108-.01-.165a2.725 2.725 0 0 0-.442-.161l-1.033-.291v-3.232h12.698v3.228l-1.027.294c-.103.029-.318.095-.449.164a1.256 1.256 0 0 0-.009.163v18.596c0 2.334-.221 5.336-1.486 7.367-1.104 1.77-2.712 3.021-4.607 3.862-2.117.94-4.423 1.29-6.726 1.29-1.245 0-2.518-.065-3.74-.29-1.642-.289-3.391-.825-4.99-1.298-.673-.196-1.852-.543-2.555-.543-.16 0-.303.125-.41.232l-.66.66-2.847-1.132 3.935-10.64 3.034 1.138-.092 1.07c-.01.111-.018.226-.018.337 0 .16.41.484.55.584zm69.368-25.636c5.18 0 10.176 1.26 14.055 4.834 3.822 3.504 5.568 7.971 5.568 13.118 0 3.317-.904 6.403-2.663 9.216-3.793 6.079-9.93 8.35-16.909 8.35-5.164 0-10.122-1.272-13.99-4.837-1.891-1.744-3.318-3.843-4.286-6.232a17.972 17.972 0 0 1-1.279-6.702c0-3.381.868-6.539 2.643-9.415 3.736-6.051 9.96-8.243 16.86-8.332zm.024 8.18c-2.471 0-4.71.663-6.572 2.327-2.165 1.92-3.086 4.365-3.086 7.24 0 2.874.921 5.32 3.088 7.242 1.868 1.668 4.13 2.325 6.613 2.325 2.477 0 4.737-.649 6.596-2.324a9.074 9.074 0 0 0 2.364-3.385 9.839 9.839 0 0 0 .725-3.716c0-2.895-.843-5.452-3.073-7.371-1.893-1.65-4.177-2.312-6.655-2.338zm59.227 12.927v5.82h18.892c.034 0 .09-.001.139-.007.069-.132.135-.347.164-.45l.294-1.028h3.229v11.008h-3.233l-.29-1.034c-.03-.104-.1-.334-.153-.442a1.202 1.202 0 0 0-.15-.008h-30.105v-3.233l1.033-.291c.1-.028.314-.094.443-.161.008-.057.009-.125.009-.165v-26.714c0-.04-.001-.108-.01-.165a2.74 2.74 0 0 0-.442-.161l-1.033-.291v-3.233h29.552c.033 0 .085 0 .13-.005.073-.135.144-.362.174-.466l.293-1.029h3.23v11h-3.225l-.297-1.023c-.029-.1-.1-.322-.153-.429a1.243 1.243 0 0 0-.152-.009h-18.34v4.659h11.4c.033 0 .09-.001.138-.007.069-.131.136-.347.165-.45l.294-1.027h3.228v10.825h-3.224l-.296-1.022a2.631 2.631 0 0 0-.171-.455 1.126 1.126 0 0 0-.134-.007zm111.93-5.92-5.901 14.906-.012.027c-.119.267-.342.742-.455 1.093.177.098.476.187.602.22l1.065.273v3.26h-12.998v-3.333l1.152-.22c.085-.016.299-.066.392-.126-.09-.459-.392-1.19-.548-1.604l-9.04-23.29c-.196-.501-.599-1.515-.957-1.92-.188-.213-.544-.318-.81-.373l-1.133-.232v-3.316h13.795v3.3l-1.113.244a2.183 2.183 0 0 0-.33.1c.038.278.189.693.27.907l4.974 13.29 5.392-13.418c.08-.196.216-.518.293-.777a2.54 2.54 0 0 0-.353-.094l-1.15-.222v-3.33h14.309v3.252l-1.057.278a2.286 2.286 0 0 0-.498.19c.055.25.202.616.282.818l5.095 13.244 4.907-12.974c.093-.234.301-.77.37-1.119a3.07 3.07 0 0 0-.496-.138l-1.149-.221v-3.33h13.684v3.24l-1.04.286c-.197.054-.756.231-.897.387-.294.344-.747 1.504-.915 1.929l-9.042 23.294c-.136.35-.464 1.171-.537 1.605.137.056.348.098.443.114l1.186.196v3.362H439.43v-3.376l1.202-.185c.088-.013.305-.056.412-.112-.083-.418-.431-1.189-.59-1.557l-.01-.023zm65.62 5.92v5.82h18.893c.033 0 .09-.001.138-.007.07-.132.136-.347.165-.45l.294-1.028h3.228v11.008h-3.232l-.291-1.034c-.03-.104-.1-.334-.153-.442a1.201 1.201 0 0 0-.15-.008H489.19v-3.233l1.033-.291c.1-.028.313-.094.442-.161.008-.057.01-.125.01-.165v-26.714c0-.04-.002-.108-.01-.165a2.747 2.747 0 0 0-.443-.161l-1.032-.291v-3.233h29.552c.032 0 .084 0 .13-.005.073-.135.143-.362.173-.466l.294-1.029h3.229v11h-3.225l-.296-1.023c-.03-.1-.1-.322-.154-.429a1.243 1.243 0 0 0-.151-.009h-18.34v4.659h11.4c.033 0 .089-.001.137-.007.07-.131.136-.347.166-.45l.294-1.027h3.228v10.825h-3.224l-.297-1.022a2.631 2.631 0 0 0-.17-.455 1.126 1.126 0 0 0-.135-.007zm52.54-16.869a2.696 2.696 0 0 0-.445-.162l-1.032-.291v-3.233h12.697v3.259l-1.064.273c-.094.025-.293.08-.411.14a1.132 1.132 0 0 0-.01.154v26.738c0 .041.003.116.011.173.111.061.32.12.414.145l1.06.276v3.255h-12.697v-3.233l1.033-.29c.1-.029.313-.094.442-.162.008-.057.01-.125.01-.164v-26.738c0-.034-.002-.09-.008-.14zm41.797 27.042c.008-.057.01-.125.01-.164v-26.714c0-.04-.002-.108-.01-.165a2.747 2.747 0 0 0-.443-.161l-1.032-.291v-3.233h19.018c3.014 0 6.637.24 9.444 1.435 3.295 1.423 5.727 3.795 7.284 7.022 1.33 2.726 1.833 5.723 1.833 8.738 0 5.207-1.466 10.072-5.517 13.52-1.59 1.376-3.444 2.313-5.476 2.874-2.404.657-5.084.824-7.568.824h-19.018v-3.233l1.033-.29c.1-.029.313-.094.442-.162zm9.738-4.353h7.229c1.682 0 4.034-.14 5.545-.965 3.02-1.642 3.722-5.022 3.722-8.215 0-2.373-.417-5.017-2.05-6.852a5.951 5.951 0 0 0-2.62-1.738c-1.403-.47-3.129-.566-4.597-.566h-7.23zm65.994-5.82v5.82h18.892c.034 0 .09-.001.139-.007.069-.132.135-.347.165-.45l.293-1.028h3.229v11.008h-3.233l-.29-1.034c-.03-.104-.1-.334-.153-.442a1.202 1.202 0 0 0-.15-.008h-30.105v-3.233l1.033-.291c.1-.028.314-.094.443-.161.008-.057.009-.125.009-.165v-26.714c0-.04-.001-.108-.01-.165a2.744 2.744 0 0 0-.442-.161l-1.033-.291v-3.233h29.552c.033 0 .085 0 .13-.005.073-.135.144-.362.174-.466l.293-1.029h3.23v11h-3.225l-.296-1.023c-.03-.1-.1-.322-.154-.429a1.243 1.243 0 0 0-.152-.009H670.47v4.659h11.399c.033 0 .09-.001.138-.007.069-.131.136-.347.165-.45l.294-1.027h3.228v10.825h-3.224l-.296-1.022a2.631 2.631 0 0 0-.171-.455 1.126 1.126 0 0 0-.134-.007zm79.05.236 4.904 6.969c.556.793 1.423 2.062 2.137 2.696.294.253.62.358 1.004.383l1.325.086v3.488h-14.26v-3.369l.814-.13c-.174-.272-.36-.54-.47-.7l-5.975-8.688h-6.254v9.062c0 .036 0 .099.009.148.11.062.32.121.416.146l1.06.276v3.255h-12.698v-3.233l1.033-.29c.101-.03.316-.095.445-.163.006-.048.007-.105.007-.14v-26.737c0-.04-.001-.108-.01-.165a2.744 2.744 0 0 0-.443-.161l-1.032-.291v-3.233h21.174c1.954 0 4.077.068 5.998.445 1.495.293 2.93.819 4.205 1.662 1.456.965 2.535 2.273 3.249 3.876.66 1.54.971 3.16.971 4.824 0 5.463-2.907 8.652-7.61 9.984zm-16.775-7.303h9.227c.981 0 2.16.014 3.14-.13.454-.06.891-.199 1.297-.42.835-.448 1.016-1.285 1.016-2.179 0-.891-.187-1.726-1.03-2.178a3.66 3.66 0 0 0-1.278-.43c-.972-.134-2.162-.112-3.145-.112h-9.227zm58.422-3.63c-1.23-.084-2.313-.586-3.151-1.54-.904-1.044-1.272-2.338-1.272-3.702 0-1.37.374-2.668 1.314-3.691.931-1.014 2.163-1.477 3.53-1.477 1.693 0 3.109.705 4.14 2.045 1.063 1.38 1.44 3.075 1.44 4.79 0 4.345-2.558 7.615-5.985 10.04l-1.13.8-2.839-3.824 1.265-.822c.817-.531 1.777-1.243 2.346-2.036a4.42 4.42 0 0 0 .342-.583zm37.945 21.578c-.062.045-.121.091-.166.126l-.716.56-2.662-1.378 4.55-10.306 2.792 1.347v1.19c0 .345.274.643.519.86 1.072.954 2.776 1.602 4.129 2.019 1.79.554 3.663.908 5.543.908 1.565 0 3.213-.218 4.637-.903.544-.261 1.033-.613 1.398-1.111.257-.34.436-.717.436-1.15 0-.532-.324-.736-.793-.923-1.091-.43-3.22-.635-4.39-.762l-3.557-.37c-1.7-.175-3.57-.358-5.242-.732a14.603 14.603 0 0 1-3.272-1.193c-1.67-.82-2.975-2.068-3.899-3.678-.895-1.537-1.28-3.244-1.28-5.015 0-2.985 1.024-5.584 3.194-7.642 3.139-3.006 7.605-3.835 11.805-3.835 2.001 0 4.012.192 5.958.652 2.28.526 4.593 1.422 6.74 2.317.287.114.742.31 1.086.406.091-.055.2-.14.258-.188l.733-.6 2.702 1.45-5.067 9.996-2.74-1.57.093-.914c.004-.043.009-.089.012-.134-.137-.2-.556-.505-.725-.619-2.65-1.842-5.657-2.616-8.87-2.616-1.303 0-2.641.13-3.876.527-.61.207-1.168.52-1.605 1-.275.302-.476.643-.476 1.06 0 .665.57.894 1.127 1.063 1.276.366 3.188.512 4.517.646l3.637.37c1.819.194 3.742.472 5.496 1.001 1.409.425 2.753 1.04 3.959 1.893 1.276.911 2.247 2.108 2.936 3.513a10.233 10.233 0 0 1 1.062 4.574c0 2.563-.838 4.857-2.472 6.825-1.7 2.073-4.216 3.257-6.753 3.96-2.257.63-4.587.906-6.927.906-4.564 0-8.908-1.14-12.98-3.146-.229-.106-.56-.27-.851-.384z" style="fill:#fff;fill-rule:evenodd" transform="translate(-11.231 -78.143)"/><path d="M820.363 508.911h64.205c-2.081-4.097-7.584-12.256-7.584-21.686v-2.743c.292-15.525 10.927-43.152 14.872-57.041 4.972-16.585 12.546-39.045 16.377-55.025h1.515c4.625 26.241 17.096 67.494 24.24 108.514 0 10.102-5.021 21.906-9.09 27.981l84.148-.96c-4.632-5.916-10.04-13.824-13.107-20.649-10.604-23.602-30.695-90.465-35.959-105.073-3.38-9.379-6.161-18.647-9.45-28.167-6.205-19.347-13.192-38.84-19.508-58.07-1.204-3.967-4.622-13.71-6.737-21.12-1.923-6.735-10.23-7.552-12.872-.845-1.095 2.779-2.322 6.616-3.93 11.007-5.537 15.14-12.017 36.651-14.256 41.526-3.161 10.468-6.677 19.807-10.088 30.057-10.596 30.257-20.618 60.842-31.246 90.702-7.642 21.773-18.906 45.688-31.53 61.592zm6.379-196.886h-56.374c4.508 5.901 9.09 10.82 9.09 21.965v89.376c0 11.379-3.715 16.186-7.575 23.48h52.267c-3.955-7.476-7.574-11.757-7.574-23.48v-88.618c0-8.99 5.268-17.006 10.166-22.723zm-135.043 74.601c2.897 2.518 11.191 4.17 16.554 4.17h6.818c19.434 0 36.223-16.364 37.117-36.355v-4.545c0-27.604-22.183-37.87-49.995-37.87H641.05c3.067 4.87 8.118 12.125 8.118 24.994l-.255 83.317c.063 11.782-5.86 20.688-11.108 26.51h57.57c-5.127-6.812-10.35-11.4-10.35-28.783l-.127-84.232 11.4-.034c29.306 0 24.505 54.444-4.6 52.828zm-251.121 60.22h48.702c-2.764-3.522-4.846-8.201-6.603-13.761-.767-4.646.268-19.572 1.417-30.108.883-8.098 3.65-21.057 4.867-27.808 10.121 17.25 19.812 52.66 27.644 71.677h14.392l29.725-80.344c2.657 20.203 4.31 41.195 5.01 64.13.15 7.104.596 10.118-4.283 16.214h53.074c-2.072-2.563-5.654-7.853-7.348-11.286-1.935-3.918-2.81-8.432-3.789-13.377-3.466-27.875-9.031-64.754-8.758-93.495 0-6.78 4.697-14.196 6.635-16.663h-48.06c-2.966 7.038-5.71 14.485-6.775 17.7a352.83 352.83 0 0 1-6.643 18.354c-2.072 5.275-11.016 30.363-13.588 37.458-3.049-8.009-24.793-66.538-27.69-73.512h-39.29c3.039 5.046 4.578 7.007 5.72 14.666 1.35 17.008-2.591 38.351-5.462 54.7-1.824 10.381-4.233 26.196-6.757 40.826-1.873 10.849-4.75 14.9-12.14 24.63zm-97.01-.246 57.33.246c-4.576-6.101-9.591-12.18-10.038-20.45V396.27c1.086-3.901 37.55-75.806 42.11-84.245h-41.353c1.233 2.784 2.56 7.762 2.56 10.037l-.095 3.19c-.064 6.263-11.779 34.31-14.282 38.822l-19.582-52.049h-51.807c5.6 5.875 9.45 9.044 14.522 18.688 3.934 7.48 6.767 14.358 10.61 21.96 2.553 5.05 20.047 41.67 20.047 44.372l.152 27.836c0 7.42-5.37 16.264-10.175 21.719zm-33.633-35.79c-6.019 4.79-18.084 8.331-27.27 8.331l-25.692.31-.19-86.975c0-7.486 5.929-15.426 8.587-20.45h-53.28c3.83 7.239 8.332 14.606 8.332 25.752v74.984c0 15.881-3.463 24.55-9.847 34.084l91.571-.024 10.397-37.368zM104.5 308.425c24.245.767 39.48 37.025 38.586 81.822-.535 26.824-4.938 52.553-14.126 67.431-5.557 8.999-13.66 14.717-23.949 14.776-21.945.125-39.096-37.025-39.096-82.207 0-45.182 14.341-82.59 38.585-81.822zm-1.007-34.879c18.31-.056 33.723 6.188 46.397 16.595 25.302 20.774 38.933 58.905 37.619 101.965-1.18 38.698-11.939 71.229-32.247 92.694-12.283 12.982-29.177 25.827-51.918 25.91-48.509.18-87.444-46.405-86.423-118.604.89-63.009 31.703-118.391 86.572-118.56zM365.256 486.964l-6.396 16.158c-.364.819-.553 1.337-.553 1.56 0 .623.51 1.071 1.518 1.33v.658h-9.006v-.658c.917-.175 1.372-.644 1.372-1.392 0-.203-.189-.812-.574-1.827l-8.013-20.644c-.398-1.021-.755-1.714-1.077-2.078-.322-.364-.79-.602-1.407-.728v-.658h9.713v.658c-.86.19-1.288.595-1.288 1.211 0 .315.106.763.33 1.35l5.542 14.808 5.983-14.891c.259-.637.392-1.064.392-1.267 0-.63-.462-1.036-1.372-1.21v-.659h10.168v.658c-.93.245-1.392.693-1.392 1.33 0 .224.112.63.35 1.231l5.696 14.808 5.507-14.563c.287-.72.434-1.259.434-1.616 0-.602-.497-1-1.476-1.19v-.658h9.614v.658c-.685.19-1.154.434-1.413.735-.26.301-.602.994-1.029 2.071l-8.012 20.644c-.385.987-.574 1.638-.574 1.966 0 .672.483 1.092 1.455 1.253v.658h-9.125v-.658c.959-.147 1.435-.609 1.435-1.371 0-.26-.21-.875-.63-1.848zm49.05 7.425v7.67h17.998c.413 0 .728-.099.944-.288.218-.196.392-.539.532-1.028h.658v7.242h-.658c-.14-.496-.314-.832-.532-1.028-.216-.189-.531-.287-.944-.287H406.88v-.658c.496-.14.832-.315 1.028-.532.19-.217.287-.539.287-.966v-23.673c0-.427-.098-.749-.287-.966-.196-.217-.532-.392-1.028-.532v-.657h24.933c.413 0 .728-.098.945-.294.216-.203.392-.546.531-1.036h.658v7.236h-.658c-.14-.483-.315-.812-.531-1.008-.217-.189-.532-.287-.945-.287h-17.509v6.641h11.358c.413 0 .727-.098.944-.287.217-.196.392-.539.532-1.028h.658v7.081h-.658c-.14-.483-.315-.818-.532-1.014-.217-.203-.531-.301-.944-.301zm47.348 0v7.67h17.999c.412 0 .727-.099.944-.288.217-.196.392-.539.532-1.028h.658v7.242h-.658c-.14-.496-.315-.832-.532-1.028-.217-.189-.532-.287-.944-.287h-25.424v-.658c.497-.14.833-.315 1.029-.532.19-.217.287-.539.287-.966v-23.673c0-.427-.098-.749-.287-.966-.196-.217-.532-.392-1.029-.532v-.657h24.934c.413 0 .727-.098.944-.294.217-.203.392-.546.532-1.036h.658v7.236h-.658c-.14-.483-.315-.812-.532-1.008-.217-.189-.531-.287-.944-.287h-17.509v6.641h11.358c.412 0 .727-.098.944-.287.217-.196.392-.539.532-1.028h.658v7.081h-.658c-.14-.483-.315-.818-.532-1.014-.217-.203-.532-.301-.944-.301zm51.568-.777-4.22 3.4v7.503c0 .426.099.748.302.972.196.231.532.4 1.014.525v.658h-8.74v-.658c.497-.14.833-.315 1.029-.532.189-.217.287-.539.287-.966V480.82c0-.413-.098-.728-.287-.945-.196-.217-.532-.392-1.029-.532v-.657h8.74v.657c-.49.126-.832.294-1.028.525-.19.224-.287.539-.287.952v9.797l11.518-9.405c.532-.441.798-.79.798-1.05 0-.392-.399-.672-1.19-.819v-.657h11.442v.657c-.476.099-.819.203-1.022.33-.21.118-.805.587-1.784 1.392l-1.582 1.308-9.517 7.642 10.79 12.981c1.002 1.204 1.722 1.98 2.163 2.33.448.35 1 .581 1.673.686v.658h-10.93v-.658c.727-.147 1.09-.413 1.09-.777 0-.195-.328-.7-.986-1.518zm44.893.777v7.67h17.999c.412 0 .727-.099.944-.288.217-.196.392-.539.532-1.028h.658v7.242h-.658c-.14-.496-.315-.832-.532-1.028-.217-.189-.532-.287-.944-.287H550.69v-.658c.497-.14.833-.315 1.029-.532.19-.217.287-.539.287-.966v-23.673c0-.427-.098-.749-.287-.966-.196-.217-.532-.392-1.029-.532v-.657h24.934c.413 0 .728-.098.944-.294.217-.203.392-.546.532-1.036h.658v7.236h-.658c-.14-.483-.315-.812-.532-1.008-.216-.189-.531-.287-.944-.287h-17.509v6.641h11.358c.412 0 .727-.098.944-.287.217-.196.392-.539.532-1.028h.658v7.081h-.658c-.14-.483-.315-.818-.532-1.014-.217-.203-.532-.301-.944-.301zm46.838-6.886v17.011c0 .427.098.75.287.966.196.217.539.392 1.029.532v.658h-8.23v-.658c.497-.14.833-.315 1.029-.532.189-.217.287-.539.287-.966V480.82c0-.413-.098-.728-.287-.945-.196-.217-.532-.392-1.029-.532v-.657h9.517v.657c-.588.147-.881.462-.881.945 0 .329.188.686.573 1.085l15.437 16.053V480.82c0-.413-.097-.728-.286-.945-.196-.217-.532-.392-1.03-.532v-.657h8.23v.657c-.49.14-.832.315-1.028.532-.19.217-.287.532-.287.945v23.695c0 .426.098.748.287.965.196.217.539.392 1.029.532v.658h-8.818v-.658c.574-.126.86-.42.86-.881 0-.273-.335-.75-1.007-1.435zm46.439 17.011v-23.673c0-.427-.098-.749-.287-.966-.196-.217-.532-.392-1.029-.532v-.657h15.599c3.422 0 6.046.392 7.872 1.168 2.624 1.134 4.563 3.01 5.822 5.62 1.001 2.05 1.498 4.443 1.498 7.193 0 4.822-1.483 8.503-4.45 11.029-1.24 1.07-2.695 1.826-4.367 2.288-1.666.455-3.793.686-6.375.686h-15.599v-.658c.497-.14.833-.315 1.03-.532.188-.217.286-.539.286-.965zm6.11-2.456h7.662c2.449 0 4.282-.336 5.514-1.007 2.638-1.435 3.954-4.227 3.954-8.384 0-3.009-.714-5.311-2.134-6.907a6.522 6.522 0 0 0-2.863-1.896c-1.126-.378-2.61-.567-4.471-.567H657.5zM188.632 285.054l2.961-8.007.695.26c-.016.182-.024.34-.024.458 0 .632.395 1.216 1.177 1.761.837.537 1.95.995 3.348 1.366 1.39.371 2.732.553 4.011.553 2.061 0 3.57-.474 4.51-1.414a3.702 3.702 0 0 0 .97-1.697c.166-.656.253-1.643.253-2.97v-18.248c0-.482-.11-.845-.324-1.09-.22-.245-.6-.442-1.16-.6v-.742h9.862v.742c-.552.158-.94.355-1.16.6-.214.245-.324.608-.324 1.09v18.596c0 3.056-.427 5.26-1.272 6.617-.892 1.43-2.218 2.535-3.98 3.317-1.76.782-3.806 1.168-6.15 1.168-1.343 0-2.504-.086-3.491-.268-.987-.174-2.598-.6-4.84-1.263-1.382-.403-2.37-.6-2.954-.6-.513 0-.979.213-1.413.647zm74.972-30.923c5.504 0 9.863 1.485 13.093 4.462 3.403 3.119 5.109 7.138 5.109 12.073 0 3.025-.814 5.851-2.448 8.465-3.198 5.125-8.434 7.684-15.706 7.684-5.465 0-9.8-1.485-13.03-4.462-1.721-1.587-3.032-3.498-3.932-5.717a16.513 16.513 0 0 1-1.176-6.175c0-3.159.813-6.049 2.432-8.67 3.095-5.015 8.314-7.565 15.658-7.66zm.024 5.346c-3.009 0-5.512.892-7.518 2.685-2.376 2.108-3.56 4.88-3.56 8.299 0 3.42 1.184 6.19 3.56 8.3 2.006 1.792 4.525 2.684 7.557 2.684 3.04 0 5.552-.892 7.541-2.685 1.185-1.058 2.1-2.36 2.733-3.908.553-1.367.829-2.788.829-4.249 0-3.577-1.185-6.396-3.562-8.441-2.021-1.761-4.548-2.654-7.58-2.685zm57.806 12.927v8.654h20.31c.465 0 .82-.11 1.065-.324.245-.22.442-.608.6-1.16h.743v8.172h-.743c-.157-.56-.355-.94-.6-1.16-.245-.214-.6-.324-1.066-.324h-28.688v-.743c.56-.157.94-.355 1.16-.6.214-.244.325-.608.325-1.09v-26.713c0-.482-.11-.845-.324-1.09-.22-.245-.6-.442-1.16-.6v-.742h28.134c.466 0 .822-.11 1.067-.332.244-.229.442-.616.6-1.169h.742v8.165h-.742c-.158-.544-.356-.916-.6-1.137-.245-.213-.6-.323-1.067-.323h-19.756v7.493h12.815c.466 0 .822-.11 1.066-.323.245-.221.442-.608.6-1.161h.743v7.991h-.742c-.159-.545-.356-.924-.6-1.145-.245-.229-.6-.34-1.066-.34zm113.356-8.379-7.217 18.233c-.41.924-.624 1.509-.624 1.761 0 .703.576 1.208 1.713 1.5v.743H418.5v-.743c1.034-.197 1.547-.726 1.547-1.57 0-.23-.213-.917-.647-2.062l-9.041-23.295c-.45-1.152-.853-1.934-1.216-2.345-.364-.41-.893-.679-1.588-.821v-.742h10.96v.742c-.97.213-1.452.671-1.452 1.366 0 .355.118.86.37 1.524l6.255 16.709 6.751-16.803c.293-.72.442-1.2.442-1.43 0-.71-.52-1.168-1.547-1.366v-.742h11.473v.742c-1.05.276-1.571.782-1.571 1.5 0 .253.126.711.395 1.39l6.427 16.709 6.215-16.433c.324-.813.49-1.42.49-1.824 0-.679-.561-1.129-1.667-1.342v-.742h10.85v.742c-.774.213-1.303.49-1.595.83-.292.339-.679 1.12-1.16 2.336l-9.042 23.295c-.434 1.113-.648 1.848-.648 2.219 0 .758.545 1.232 1.643 1.413v.743h-10.297v-.743c1.082-.165 1.619-.686 1.619-1.547 0-.292-.237-.987-.711-2.085zm64.194 8.379v8.654h20.31c.466 0 .821-.11 1.066-.324.245-.22.442-.608.6-1.16h.742v8.172h-.742c-.158-.56-.355-.94-.6-1.16-.245-.214-.6-.324-1.066-.324h-28.688v-.743c.56-.157.94-.355 1.16-.6.214-.244.324-.608.324-1.09v-26.713c0-.482-.11-.845-.323-1.09-.221-.245-.6-.442-1.161-.6v-.742h28.135c.466 0 .821-.11 1.066-.332.245-.229.442-.616.6-1.169h.742v8.165h-.742c-.158-.544-.355-.916-.6-1.137-.245-.213-.6-.323-1.066-.323h-19.757v7.493H511.8c.466 0 .821-.11 1.066-.323.245-.221.442-.608.6-1.161h.742v7.991h-.742c-.158-.545-.355-.924-.6-1.145-.245-.229-.6-.34-1.066-.34zm55.381 11.426v-26.738c0-.466-.11-.821-.324-1.066-.22-.245-.6-.442-1.16-.6v-.742h9.863v.742c-.553.142-.94.332-1.161.592-.213.253-.324.608-.324 1.074v26.738c0 .481.11.845.34 1.097.22.26.6.45 1.145.592v.743h-9.863v-.743c.56-.157.94-.355 1.16-.6.214-.244.324-.608.324-1.09zm41.8 0v-26.714c0-.482-.11-.845-.324-1.09-.221-.245-.6-.442-1.16-.6v-.742h17.6c3.862 0 6.823.442 8.884 1.318 2.961 1.28 5.149 3.396 6.57 6.341 1.129 2.314 1.69 5.014 1.69 8.118 0 5.44-1.674 9.594-5.023 12.445-1.397 1.208-3.04 2.06-4.927 2.582-1.88.513-4.28.774-7.194.774h-17.6v-.743c.56-.157.939-.355 1.16-.6.213-.244.324-.608.324-1.09zm6.893-2.772h8.647c2.764 0 4.833-.379 6.222-1.137 2.977-1.619 4.462-4.77 4.462-9.46 0-3.395-.806-5.993-2.409-7.794a7.357 7.357 0 0 0-3.23-2.14c-1.27-.426-2.945-.64-5.045-.64h-8.647zm65.995-8.654v8.654h20.31c.465 0 .82-.11 1.065-.324.245-.22.443-.608.6-1.16h.743v8.172h-.742c-.158-.56-.356-.94-.6-1.16-.245-.214-.6-.324-1.067-.324h-28.687v-.743c.56-.157.94-.355 1.16-.6.213-.244.324-.608.324-1.09v-26.713c0-.482-.11-.845-.324-1.09-.22-.245-.6-.442-1.16-.6v-.742h28.135c.466 0 .82-.11 1.066-.332.244-.229.442-.616.6-1.169h.742v8.165h-.742c-.158-.544-.356-.916-.6-1.137-.245-.213-.6-.323-1.066-.323h-19.757v7.493h12.816c.465 0 .82-.11 1.066-.323.244-.221.442-.608.6-1.161h.742v7.991h-.742c-.158-.545-.356-.924-.6-1.145-.245-.229-.6-.34-1.066-.34zm62.274.97v10.48c0 .465.111.82.34 1.073.221.26.6.45 1.145.592v.743h-9.863v-.743c.56-.158.94-.355 1.161-.6.213-.244.324-.6.324-1.066v-26.737c0-.482-.11-.845-.324-1.09-.22-.245-.6-.442-1.16-.6v-.742h19.756c2.409 0 4.32.142 5.725.418 1.414.277 2.645.758 3.696 1.453 1.216.806 2.124 1.895 2.732 3.261.568 1.327.853 2.748.853 4.257 0 5.156-2.859 8.173-8.584 9.05l6.136 8.717c1.074 1.532 1.871 2.511 2.369 2.953.505.434 1.113.68 1.84.726v.743h-11.427v-.743c.79-.126 1.185-.402 1.185-.829 0-.284-.363-.955-1.09-2.013l-6.396-9.302zm0-5.203h10.645c1.571 0 2.685-.048 3.332-.142a5.116 5.116 0 0 0 1.777-.577c1.176-.631 1.761-1.768 1.761-3.427 0-1.65-.585-2.787-1.76-3.419a5.038 5.038 0 0 0-1.77-.592c-.624-.087-1.737-.126-3.34-.126h-10.645zm57.924-1.24c1.264-.821 2.172-1.626 2.733-2.408.552-.79.947-1.816 1.176-3.08-.726.182-1.263.276-1.619.276-1.018 0-1.832-.355-2.456-1.065-.615-.711-.923-1.635-.923-2.772 0-1.145.316-2.053.94-2.732.623-.68 1.452-1.019 2.487-1.019 1.247 0 2.25.498 3.016 1.492.766.995 1.145 2.306 1.145 3.925 0 3.38-1.792 6.34-5.385 8.884zm68.474-9.586-3.766 7.43-.648-.37c.016-.159.024-.277.024-.372 0-.52-.45-1.09-1.343-1.69-2.748-1.91-5.97-2.866-9.673-2.866-1.634 0-3.072.197-4.327.6-.908.308-1.643.774-2.203 1.39-.56.616-.845 1.287-.845 2.014 0 1.184.718 1.99 2.148 2.424.742.213 2.33.45 4.77.695l3.631.37c2.156.23 3.901.545 5.236.948 1.334.403 2.519.964 3.545 1.69 1.05.75 1.88 1.745 2.488 2.985a8.81 8.81 0 0 1 .916 3.948c0 2.227-.719 4.201-2.148 5.923-1.295 1.579-3.309 2.74-6.04 3.498-2.038.568-4.218.852-6.547.852-4.177 0-8.3-1.002-12.374-3.008-.86-.403-1.374-.6-1.548-.6-.197 0-.513.166-.947.505l-.671-.347 3.419-7.747.67.324v.3c0 .695.333 1.335.996 1.92 1.003.891 2.55 1.665 4.65 2.313 2.093.647 4.083.97 5.963.97 2.053 0 3.806-.346 5.25-1.041.807-.387 1.446-.893 1.92-1.54.482-.64.718-1.303.718-1.998 0-1.05-.56-1.792-1.69-2.243-.781-.308-2.368-.592-4.761-.853l-3.561-.37c-2.393-.246-4.083-.482-5.07-.703a13.178 13.178 0 0 1-2.961-1.082c-1.398-.687-2.503-1.73-3.3-3.12-.727-1.247-1.09-2.684-1.09-4.303 0-2.669.916-4.872 2.755-6.617 2.4-2.298 6.01-3.443 10.827-3.443 2.013 0 3.9.205 5.638.616 1.745.403 3.916 1.16 6.53 2.25.892.356 1.437.537 1.643.537.323 0 .694-.181 1.129-.537z" style="fill:#2d2c2b;fill-rule:evenodd" transform="translate(-11.231 -78.143)"/></svg>